<svg width="7" height="8" viewBox="0 0 7 8" fill="none" xmlns="http://www.w3.org/2000/svg">
<path d="M1.89476 5.89475C2.24357 5.89475 2.52634 5.61198 2.52634 5.26317C2.52634 4.91436 2.24357 4.63159 1.89476 4.63159C1.54595 4.63159 1.26318 4.91436 1.26318 5.26317C1.26318 5.61198 1.54595 5.89475 1.89476 5.89475Z" fill="#9B9B9C"/>
<path d="M4.84203 5.89475C5.19084 5.89475 5.47361 5.61198 5.47361 5.26317C5.47361 4.91436 5.19084 4.63159 4.84203 4.63159C4.49322 4.63159 4.21045 4.91436 4.21045 5.26317C4.21045 5.61198 4.49322 5.89475 4.84203 5.89475Z" fill="#9B9B9C"/>
<path d="M3.36842 0C1.68421 0 0 0.210526 0 1.68421V5.68421C0 6.49684 0.661053 7.15789 1.47368 7.15789L0.842105 7.78947V8H1.68421L2.52632 7.15789H4.21053L5.05263 8H5.89474V7.78947L5.26316 7.15789C6.07579 7.15789 6.73684 6.49684 6.73684 5.68421V1.68421C6.73684 0.210526 5.05263 0 3.36842 0ZM3.36842 0.842105C4.84632 0.842105 5.45684 1.04421 5.71368 1.26316H1.02316C1.28 1.04421 1.89053 0.842105 3.36842 0.842105ZM0.842105 2.10526H2.94737V3.36842H0.842105V2.10526ZM5.89474 5.68421C5.89474 6.03368 5.61263 6.31579 5.26316 6.31579H1.47368C1.12421 6.31579 0.842105 6.03368 0.842105 5.68421V4.21053H5.89474V5.68421ZM5.89474 3.36842H3.78947V2.10526H5.89474V3.36842Z" fill="#9B9B9C"/>
</svg>
